<svg xmlns="http://www.w3.org/2000/svg" width="36" height="36" viewBox="0 0 36 36">
  <g id="linkedin" transform="translate(-70 -674)">
    <rect id="Rectangle_4" data-name="Rectangle 4" width="30" height="31" transform="translate(74 677)" fill="#fff"/>
    <path id="linkedin_1_" data-name="linkedin (1)" d="M32.744,0H3.256A3.257,3.257,0,0,0,0,3.256V32.743A3.257,3.257,0,0,0,3.256,36H32.743A3.257,3.257,0,0,0,36,32.743V3.256A3.257,3.257,0,0,0,32.744,0ZM11.14,31.085a.948.948,0,0,1-.948.948H6.158a.948.948,0,0,1-.948-.948V14.174a.948.948,0,0,1,.948-.948h4.034a.948.948,0,0,1,.948.948ZM8.175,11.632A3.832,3.832,0,1,1,12.008,7.8a3.832,3.832,0,0,1-3.833,3.832ZM32.222,31.161a.871.871,0,0,1-.871.871H27.022a.871.871,0,0,1-.871-.871V23.229c0-1.183.347-5.185-3.092-5.185-2.668,0-3.209,2.739-3.318,3.968v9.149a.871.871,0,0,1-.871.871H14.682a.871.871,0,0,1-.871-.871V14.1a.871.871,0,0,1,.871-.871h4.187a.871.871,0,0,1,.871.871v1.475c.989-1.485,2.459-2.63,5.59-2.63,6.932,0,6.892,6.476,6.892,10.034v8.184Z" transform="translate(70 674)" fill="#0077b7"/>
  </g>
</svg>
