<svg xmlns="http://www.w3.org/2000/svg" width="21" height="21.003" viewBox="0 0 21 21.003">
  <g id="Login" transform="translate(-200.5 716.503)">
    <path id="Path_12" data-name="Path 12" d="M10,20H20a8.8,8.8,0,0,0-.87-3.523c-.652-1.3-3.478-2.175-6.957-3.479v-2.61a3.262,3.262,0,0,0,1.3-2.61c.435,0,.87-1.74,0-2.175,0-.261,1.174-2.436.87-3.914C13.913-.485,7.826-.485,7.391,1.255c-2.609,0-.87,4-.87,4.349-.87.435-.435,2.175,0,2.175a3.262,3.262,0,0,0,1.3,2.61V13c-3.478,1.3-6.3,2.175-6.957,3.479A8.8,8.8,0,0,0,0,20Z" transform="translate(201 -716)" fill="none" stroke="#4b4b4b" stroke-linejoin="round" stroke-width="1"/>
  </g>
</svg>
