<svg xmlns="http://www.w3.org/2000/svg" width="200" height="32" viewBox="0 0 150 24" fill-rule="evenodd" xmlns:v="https://vecta.io/nano"><path d="M64 8.102c.102-1.102.898-1.902 2-2 1.102 0 2 .898 2 2zm5.5 1.699c.801 0 1.102-.402 1.102-1.102 0-2.5-2-4.598-4.602-4.598-2.5 0-4.602 2-4.602 4.598v.402c-.098 2.598 1.801 4.797 4.402 4.898h.398c1.902 0 4.199-1.102 4.199-2.199 0-.602-.5-1-1-1.102-.699 0-1.598 1-2.898 1-1.199.102-2.199-.699-2.398-1.801zm-8.602-4C60.898 4.5 59 4 57.699 4c-2 0-3.5 1.199-3.5 3 0 2.898 4.5 2.699 4.5 3.898 0 .5-.199.703-1 .703-1.199 0-1.699-.902-2.598-.902A1.11 1.11 0 0 0 54 11.801c0 1.199 2.102 2 3.602 2 2.199 0 3.598-1.301 3.598-3 0-2.902-4.398-2.699-4.398-3.902 0-.5.398-.699.898-.699.801 0 1.801.699 2.301.699.398 0 .898-.5.898-1.098zm-9.199-5.5a1.36 1.36 0 0 0-1.398 1.398c0 .801.598 1.402 1.398 1.5.801 0 1.402-.699 1.402-1.5S52.5.301 51.699.301zM50.5 12.398c-.102.703.398 1.301 1.199 1.402.699.098 1.301-.402 1.402-1.199v-.301V5.5c.098-.699-.402-1.301-1.203-1.398C51.199 4 50.602 4.5 50.5 5.301v.301zm-9.898 0c-.102.703.398 1.301 1.098 1.402s1.301-.402 1.402-1.102v-.301-4.5C43 7 43.699 6.199 44.699 6.102s1.699.598 1.801 1.598v.199 4.402c-.102.699.398 1.301 1.102 1.398s1.297-.398 1.398-1.098v-.301V7.5c.102-1.801-1.301-3.398-3.102-3.398H45.5c-.898 0-1.699.297-2.301.898V1.398C43.199.699 42.699.102 42 0s-1.301.398-1.398 1.102v.297zm-.902-6.797C39.699 4.398 37.602 4 36.602 4 34 4.102 31.898 6.301 32 8.898c-.102 2.602 1.801 4.801 4.398 4.902h.203c.898 0 3.098-.402 3.098-1.801a1.11 1.11 0 0 0-1.098-1.102c-.602.203-1.301.402-1.902.5-1.301-.098-2.301-1.199-2.199-2.5 0-1.297.699-2.598 2.199-2.598.801 0 1.402.5 2 .5s1-.602 1-1.199zM22.5 12.398c-.102.703.398 1.301 1.102 1.402s1.297-.402 1.398-1.102v-.301-4.5c0-.898.699-1.699 1.602-1.699.898-.098 1.699.699 1.797 1.602V8v4.398c-.098.703.402 1.301 1.102 1.402s1.301-.402 1.398-1.102v-.301V7.5C31 5.602 29.602 4.102 27.801 4h-.402c-1-.102-1.898.301-2.5 1-.098-.602-.598-1-1.199-.898-.699 0-1.301.598-1.301 1.297V5.5zM14.5 9c0-1.199.602-2.602 2-2.602s2 1.402 2 2.602-.602 2.602-2 2.602c-1.398-.102-2-1.402-2-2.602zM21 5.801c0-.699 0-1.699-1.199-1.699-.602 0-1.199.5-1.199 1.098C18 4.398 17.102 4 16.102 4c-2.402 0-4.203 2.102-4.203 4.898 0 2.902 1.801 4.902 4.203 4.902 1 0 1.898-.402 2.398-1.199.199.699.5 1.098 1.199 1.098 1.199 0 1.199-1 1.199-1.699zM6.301 12.398c-.102.703.398 1.301 1.098 1.402s1.301-.402 1.402-1.102v-.301-4c0-1 .801-1.297 1.5-1.699S12 6.301 12 5.5c.102-.699-.398-1.301-1.102-1.398h-.098C10 4.102 9.398 4.5 9 5.199c0-.801-.602-1.098-1.199-1.098-.801 0-1.402.5-1.5 1.199v.098zm-4.602 0c-.098.703.402 1.301 1.199 1.402.703.098 1.301-.402 1.402-1.199v-.301V6.5h.801c.797 0 1.297-.301 1.297-1.102s-.598-1.199-1.297-1.199h-.801v-1c0-.898.398-.898.898-.898.699 0 1-.301 1-1.102C6.199.301 5.301 0 4.398 0c-1.5-.102-2.699 1.102-2.699 2.5v.398 1.301h-.598A1.11 1.11 0 0 0 0 5.301v.098c0 .5.398 1 1 1.102h.199.602zm0 0" fill="rgb(0%,0%,0%)"/><path d="M132.602 12.398c-.102.703.398 1.301 1.098 1.402s1.301-.402 1.402-1.102v-.301-4.5c0-1 .5-1.797 1.5-1.797.898 0 1.5.699 1.5 1.797v4.402c-.102.699.398 1.301 1.199 1.398.699.102 1.301-.398 1.398-1.199v-.301-4.301A1.56 1.56 0 0 1 142 6.199h.199c.902 0 1.5.699 1.5 1.801v4.398c-.098.703.402 1.301 1.199 1.402s1.301-.402 1.402-1.199V12.3 7.5c.098-1.801-1.199-3.301-2.902-3.398h-.598c-1 .098-2 .5-2.699 1.297a3.33 3.33 0 0 0-2.602-1.297 3.19 3.19 0 0 0-2.398 1.098c-.102-.598-.602-1-1.203-1-.699 0-1.297.602-1.297 1.301v.102zm-5.703-6c1.402 0 2 1.402 2 2.602s-.598 2.602-2 2.602-2-1.301-2-2.602.602-2.602 2-2.602zm0-2.398c-2.598.102-4.699 2.301-4.598 4.898-.199 2.5 1.699 4.703 4.301 4.902 2.5.199 4.699-1.699 4.898-4.301V8.8c.102-2.5-1.898-4.699-4.602-4.801h0zm-5.098 1.602c0-1.203-2.102-1.602-3.102-1.602-2.598.102-4.699 2.301-4.598 4.898-.102 2.602 1.797 4.801 4.398 4.902h.199c.902 0 3.102-.402 3.102-1.801a1.11 1.11 0 0 0-1.102-1.102c-.598.203-1.301.402-1.898.5-1.301-.098-2.301-1.199-2.199-2.5 0-1.297.699-2.598 2.199-2.598.801 0 1.398.5 2 .5a1.06 1.06 0 0 0 1-1.199zM110 12.5c0 .801.602 1.398 1.398 1.398S112.8 13.3 112.8 12.5s-.602-1.398-1.402-1.398A1.36 1.36 0 0 0 110 12.5zM101.699 9c0-1.199.602-2.602 2-2.602s2 1.402 2 2.602-.598 2.602-2 2.602c-1.301-.102-2-1.402-2-2.602zm6.602-3.199c0-.699 0-1.699-1.199-1.699-.602 0-1.203.5-1.203 1.098-.598-.801-1.5-1.199-2.398-1.199-2.5 0-4.301 2.199-4.301 5 0 2.898 1.801 4.898 4.199 4.898 1 0 1.902-.398 2.402-1.199.199.699.5 1.102 1.199 1.102 1.199 0 1.199-1 1.199-1.699V5.801zm-11.5-5.5c-.801 0-1.402.598-1.402 1.398s.602 1.402 1.402 1.5c.801 0 1.398-.699 1.398-1.5A1.36 1.36 0 0 0 96.801.301zm-1.199 12.098c-.102.703.398 1.301 1.199 1.402.699.098 1.301-.402 1.398-1.199v-.301V5.5c.102-.699-.398-1.301-1.199-1.398s-1.301.398-1.398 1.199v.301zm-4-3.5c0 1.203-.602 2.703-2 2.703-1.301 0-2-1.402-2-2.602s.699-2.602 2-2.602 2 1.203 2 2.5zm2.598-7.5C94.199.699 93.699.102 93 0s-1.301.398-1.398 1.102v.297 3.5C90.898 4.301 90 4 89.102 4 86.398 4 85 6.602 85 9.102c0 2.398 1.699 4.797 4.199 4.797a2.98 2.98 0 0 0 2.402-1.199c.098.602.598 1.102 1.297 1.102a1.33 1.33 0 0 0 1.301-1.301v-.102zm-18.699 11c-.102.703.398 1.301 1.199 1.402.699.098 1.301-.402 1.402-1.199v-.301-4.402C78 7.001 78.7 6.2 79.602 6.2c.898-.098 1.699.699 1.797 1.602V8v4.398c-.098.703.402 1.301 1.203 1.402.699.098 1.297-.402 1.398-1.199V12.3 7.5c0-1.898-1.301-3.398-3.199-3.5h-.402c-.898-.102-1.898.301-2.5 1-.098-.602-.598-1-1.199-.898-.699 0-1.301.598-1.301 1.297V5.5zM72.801.301c-.801 0-1.402.598-1.402 1.398s.602 1.402 1.402 1.5c.801 0 1.398-.699 1.398-1.5A1.36 1.36 0 0 0 72.801.301zM71.5 12.398c-.102.703.398 1.301 1.199 1.402.699.098 1.301-.402 1.402-1.199V12.3 5.5c.098-.699-.402-1.301-1.203-1.398C72.199 4 71.602 4.5 71.5 5.301v.301zm66.898 7.801C138.398 18 137 18 136.602 18c-1.203.199-2 1.199-1.801 2.398.098 1 1 1.801 2.098 1.801.5 0 .902-.098 1.301-.199v-.898c-.398.199-.801.297-1.199.297-.5.102-1-.297-1-.797V20.5h2.398zM136 19.801c0-.199 0-1 .699-1 .5 0 .699.5.699 1zm-2-1.602c-.398-.098-.801-.199-1.102-.199-1.199 0-1.5.801-1.5 1.199 0 .602.301 1.102.902 1.301.5.199.898.301.898.5s0 .398-.598.398a1.68 1.68 0 0 1-1-.297v1c.398.098.898.199 1.398.199.801 0 1.5-.402 1.5-1.301 0-.602-.301-1.102-.898-1.199-.703-.301-.902-.301-.902-.602 0-.098.102-.301.5-.301.301 0 .699.102 1 .203zm-5.801 2c0-.801.199-1.301.602-1.301s.598.5.598 1.301-.199 1.301-.598 1.301-.602-.5-.602-1.301zm-1.301 0c.102 1.102 1 1.902 2.102 1.801s1.898-1 1.801-2.102c-.102-1-.902-1.797-1.902-1.797S127 18.898 127 19.898c-.102 0-.102.203-.102.301zm-3.797-2.5h.297c1 0 1.402.699 1.402 1.801 0 1-.402 1.801-1.402 1.801H123v-3.602zm-1.301 4.5h1.801c1.398.102 2.598-.898 2.598-2.301V19.5c0-2.102-1.199-2.801-2.5-2.801h-2v5.5zm-2.602-4.098H118l-.699 2.797-.801-2.797h-1.301l1.402 4.098c0 .402-.203.801-.602.801-.102 0-.301 0-.398-.102v.902c.199.098.5.098.797.098.703 0 1.102-.398 1.402-1.398zm-5.801 4.098h1.301v-5.898h-1.301zm-2.199-4.801h1.301V16.3h-1.301zm0 4.801h1.301v-4.098h-1.301zM109.1 20.5c0 1-.602 1-.703 1-.297 0-.5-.199-.5-.398V21c0-.699.801-.699 1.301-.699v.199zm-1.902-1.301c.301-.199.699-.398 1.102-.398.199 0 .801 0 .801.801h-.402c-.398 0-2 0-2 1.398 0 .699.5 1.199 1.102 1.301H108c.5 0 .898-.199 1.102-.602v.602h1.098v-1.199-1.5c0-.902-.301-1.5-1.801-1.5-.5 0-.898.098-1.297.297zm-4.199-1.5h.301c1 0 1.398.699 1.398 1.801 0 1-.398 1.801-1.398 1.801h-.3zm-1.301 4.5h1.801c1.398.102 2.602-.898 2.602-2.301V19.5c0-2.102-1.203-2.801-2.5-2.801h-2zm-3.098-4c-.402-.098-.801-.199-1.102-.199-1.199 0-1.5.801-1.5 1.199 0 .602.301 1.102.898 1.301.5.199.902.301.902.5s0 .398-.602.398a1.7 1.7 0 0 1-1-.297v1c.402.098.902.199 1.402.199.797 0 1.5-.402 1.5-1.301 0-.602-.301-1.102-.902-1.199-.699-.301-.898-.301-.898-.602 0-.098.098-.301.5-.301.301 0 .699.102 1 .203zm-4.402.199h.902l.598-2.098H94.5zM91.3 22.199h1.301v-1.801c0-.598.098-1.199.797-1.199h.402V18h-.199c-.703 0-.902.398-1.102.801v-.699H91.3V19zm-.902-4.098h-1.297v2.297c0 .5-.102.902-.5.902-.301 0-.5-.102-.5-.699v-2.5H86.8V20.8c0 .801.301 1.5 1.199 1.5.5 0 1-.301 1.199-.801v.699H90.3V21.3zm-4.297 2.098C86.102 18 84.699 18 84.301 18c-1.199.199-2 1.199-1.801 2.398.102 1 1 1.801 2.102 1.801.5 0 .898-.098 1.297-.199v-.898c-.398.199-.797.297-1.199.297-.5.102-1-.297-1-.797V20.5h2.402zm-2.402-.398c0-.199 0-1 .602-1 .5 0 .699.5.699 1zM80.5 22.199h1.301V19.5c0-.801-.301-1.5-1.199-1.5-.5 0-1 .301-1.203.801v-.699h-1.098V19v3.301h1.301V20c0-.5.098-.898.5-.898.297 0 .5.098.5.699zm-3.102-2C77.398 18 76 18 75.602 18c-1.203.199-2 1.199-1.801 2.398.098 1 1 1.801 2.098 1.801.5 0 .902-.098 1.301-.199v-.898c-.398.199-.801.297-1.199.297-.5.102-1-.297-1-.797V20.5h2.398zM75 19.801c0-.199 0-1 .602-1 .5 0 .699.5.699 1zm-4 2.398h1.301v-1.801c0-.598.098-1.199.801-1.199h.398V18h-.199c-.699 0-.902.398-1.102.801v-.699H71V19zm-2.102-2c0 .699-.098 1.301-.598 1.301s-.602-.602-.602-1.301c0-.5.102-1.199.602-1.199.598 0 .598.699.598 1.199zm-2.5 3.699h1.301v-2.297c.199.398.602.699 1.102.699 1 0 1.5-.902 1.5-2 0-1.301-.5-2.199-1.5-2.199-.5 0-.902.297-1.102.699v-.699H66.5V19zm-.699-3.699C65.699 18 64.301 18 63.898 18c-1.199.199-2 1.199-1.797 2.398.098 1 1 1.801 2.098 1.801.5 0 .902-.098 1.301-.199v-.898c-.398.199-.801.297-1.199.297-.5.102-1-.297-1-.797V20.5h2.398zm-2.398-.398c0-.199 0-1 .598-1 .5 0 .703.5.703 1zm-4.102 2.398H60.5v-1.801c0-.598.102-1.199.801-1.199h.398V18H61.5c-.699 0-.898.398-1.102.801v-.699H59.3V19zM55.801 19h.699v2.102c-.102.598.398 1.098 1 1.199h.199c.301 0 .602 0 .902-.102v-.898c-.102.098-.301.098-.402.098-.199 0-.398-.098-.398-.5V19h.801v-.898h-.801v-1.203l-1.301.402v.898h-.699zM54 22.199h1.301V19.5c0-.801-.301-1.5-1.199-1.5-.5-.102-1 .301-1.203.801v-.699h-1.098V19v3.301H53V20c0-.5.102-.898.5-.898.301 0 .5.098.5.699zm-6.301 0H51v-1h-2v-1.398h1.898v-1H49v-1.199h1.898v-1h-3.199zm99.903-19.301H148c.102 0 .301 0 .398-.098s.102-.102.102-.199v-.203l-.102-.098h-.297-.402zm-.301 1.203v-2H148c.199 0 .301 0 .5.098.102 0 .199.102.301.199a.88.88 0 0 1 0 .703c-.102.098-.301.199-.402.199.102 0 .102.098.203.098.098.102.199.301.297.402l.203.398h-.402l-.199-.301c-.102-.199-.199-.297-.301-.5-.098-.098-.199-.098-.301-.098h-.199v.898zm.801-2.602c-.301 0-.5.102-.801.199-.199.102-.402.301-.602.602-.301.5-.301 1.098 0 1.598.102.203.301.402.602.602.5.301 1.098.301 1.598 0 .203-.102.402-.301.602-.602a1.85 1.85 0 0 0 .199-.797c0-.297-.098-.5-.199-.801-.102-.199-.301-.402-.602-.602-.199-.098-.5-.199-.797-.199zm0-.301c.297 0 .598.102.898.199a2.35 2.35 0 0 1 .699.703c.199.297.199.598.301.898 0 .301-.102.602-.199.898a2.4 2.4 0 0 1-.699.703 2.14 2.14 0 0 1-1.902 0 2.35 2.35 0 0 1-.699-.703c-.199-.297-.199-.598-.199-.898s.098-.699.301-.898a2.35 2.35 0 0 1 .699-.703 1.91 1.91 0 0 1 .801-.199zm0 0" fill="rgb(13.72549%,12.156863%,12.54902%)"/></svg>