<svg xmlns="http://www.w3.org/2000/svg" width="36" height="36" viewBox="0 0 36 36">
  <g id="Group_163" data-name="Group 163" transform="translate(0.4)">
    <rect id="Rectangle_7" data-name="Rectangle 7" width="36" height="36" rx="4" transform="translate(-0.4 0)" fill="#55acee"/>
    <path id="twitter" d="M22.286,50.144a9.526,9.526,0,0,1-2.632.722,4.543,4.543,0,0,0,2.01-2.525,9.13,9.13,0,0,1-2.9,1.106,4.568,4.568,0,0,0-7.9,3.124,4.7,4.7,0,0,0,.106,1.042,12.932,12.932,0,0,1-9.417-4.779,4.57,4.57,0,0,0,1.4,6.106,4.512,4.512,0,0,1-2.064-.563v.05a4.59,4.59,0,0,0,3.66,4.489,4.56,4.56,0,0,1-1.2.15,4.04,4.04,0,0,1-.865-.078,4.612,4.612,0,0,0,4.269,3.183A9.18,9.18,0,0,1,1.093,64.12,8.557,8.557,0,0,1,0,64.057a12.862,12.862,0,0,0,7.009,2.05,12.914,12.914,0,0,0,13-13c0-.2-.007-.4-.017-.591A9.114,9.114,0,0,0,22.286,50.144Z" transform="translate(6.393 -39.741)" fill="#fff"/>
  </g>
</svg>
