<svg xmlns="http://www.w3.org/2000/svg" width="36" height="36" viewBox="0 0 36 36">
  <g id="Group_164" data-name="Group 164" transform="translate(0.343)">
    <rect id="Rectangle_10" data-name="Rectangle 10" width="36" height="36" rx="4" transform="translate(-0.343 0)" fill="#ed2a2f"/>
    <g id="youtube" transform="translate(6.686 10.029)">
      <path id="Path_18" data-name="Path 18" d="M21.827,2.442A2.792,2.792,0,0,0,19.862.477C18.118,0,11.143,0,11.143,0S4.167,0,2.423.459A2.849,2.849,0,0,0,.459,2.442,29.421,29.421,0,0,0,0,7.8a29.313,29.313,0,0,0,.459,5.36,2.793,2.793,0,0,0,1.964,1.964c1.762.477,8.72.477,8.72.477s6.976,0,8.72-.459a2.792,2.792,0,0,0,1.964-1.964,29.422,29.422,0,0,0,.459-5.36A27.926,27.926,0,0,0,21.827,2.442Zm0,0" transform="translate(0 0)" fill="#fffdfd"/>
      <path id="Path_19" data-name="Path 19" d="M204.969,109.166l5.8-3.341-5.8-3.341Zm0,0" transform="translate(-196.047 -98.024)" fill="#ed2a2f"/>
    </g>
  </g>
</svg>
